<?xml version="1.0" encoding="utf-8"?>
<!-- Generator: Adobe Illustrator 17.0.0, SVG Export Plug-In . SVG Version: 6.00 Build 0)  -->
<!DOCTYPE svg PUBLIC "-//W3C//DTD SVG 1.1//EN" "http://www.w3.org/Graphics/SVG/1.1/DTD/svg11.dtd">
<svg version="1.1" id="Capa_1" xmlns="http://www.w3.org/2000/svg" xmlns:xlink="http://www.w3.org/1999/xlink" x="0px" y="0px"
	 width="319.786px" height="95.187px" viewBox="0 0 319.786 95.187" enable-background="new 0 0 319.786 95.187"
	 xml:space="preserve">
<g>
	<path fill="#F15B4E" d="M251.049,66.274c-8.024,0-13.859-4.474-13.859-15.173v-6.565c0-10.698,5.835-15.172,13.859-15.172
		c8.023,0,13.859,4.474,13.859,15.172v6.565C264.909,61.8,259.073,66.274,251.049,66.274z M258.1,44.536
		c0-6.419-2.285-9.288-7.051-9.288s-7.052,2.869-7.052,9.288v6.565c0,6.419,2.286,9.289,7.052,9.289s7.051-2.869,7.051-9.289V44.536
		z"/>
	<path fill="#F15B4E" d="M296.614,65.885h-4.912c-1.167,0-2.188,0-2.966-1.75L277.94,40.451c-0.146-0.292-0.292-0.389-0.438-0.389
		c-0.146,0-0.243,0.097-0.243,0.389v24.461c0,0.535-0.39,0.973-0.925,0.973h-4.133c-0.535,0-0.973-0.438-0.973-0.973V31.698
		c0-1.07,0.875-1.945,1.945-1.945h5.252c1.021,0,1.556,0.292,2.14,1.556l11.33,24.996c0.098,0.243,0.243,0.389,0.39,0.389
		c0.097,0,0.243-0.146,0.243-0.438V30.677c0-0.535,0.389-0.924,0.924-0.924h4.182c0.535,0,0.925,0.389,0.925,0.924V63.94
		C298.559,65.009,297.683,65.885,296.614,65.885z"/>
</g>
<g>
	<path fill="#58595B" d="M44.959,40.444l-5.927,21.404c-0.941,3.481-3.481,4.422-5.881,4.422s-4.893-0.94-5.833-4.422l-5.928-21.404
		c-0.047-0.094-0.047-0.235-0.047-0.329c0-0.424,0.329-0.753,0.753-0.753h4.704c0.424,0,0.8,0.329,0.941,0.941l4.516,19.711
		c0.188,0.894,0.518,1.176,0.894,1.176c0.377,0,0.706-0.282,0.895-1.176l4.516-19.711c0.142-0.612,0.564-0.941,0.988-0.941h4.704
		c0.423,0,0.753,0.329,0.753,0.753C45.007,40.209,45.007,40.35,44.959,40.444z"/>
	<path fill="#58595B" d="M54.746,35.834h-4.562c-0.518,0-0.988-0.423-0.988-0.94v-4.14c0-0.518,0.471-0.941,0.988-0.941h4.562
		c0.518,0,0.941,0.424,0.941,0.941v4.14C55.687,35.411,55.264,35.834,54.746,35.834z M54.605,65.894h-4.328
		c-0.518,0-0.94-0.471-0.94-0.988V40.303c0-0.518,0.423-0.941,0.94-0.941h4.328c0.518,0,0.94,0.424,0.94,0.941v24.603
		C55.546,65.423,55.123,65.894,54.605,65.894z"/>
	<path fill="#58595B" d="M83.49,40.444l-5.927,21.404c-0.941,3.481-3.481,4.422-5.881,4.422s-4.893-0.94-5.833-4.422l-5.928-21.404
		c-0.047-0.094-0.047-0.235-0.047-0.329c0-0.424,0.329-0.753,0.753-0.753h4.704c0.424,0,0.8,0.329,0.941,0.941l4.516,19.711
		c0.188,0.894,0.518,1.176,0.894,1.176c0.377,0,0.706-0.282,0.895-1.176l4.516-19.711c0.142-0.612,0.564-0.941,0.988-0.941h4.704
		c0.423,0,0.753,0.329,0.753,0.753C83.538,40.209,83.538,40.35,83.49,40.444z"/>
	<path fill="#58595B" d="M93.277,35.834h-4.562c-0.518,0-0.988-0.423-0.988-0.94v-4.14c0-0.518,0.471-0.941,0.988-0.941h4.562
		c0.518,0,0.941,0.424,0.941,0.941v4.14C94.219,35.411,93.795,35.834,93.277,35.834z M93.137,65.894h-4.328
		c-0.518,0-0.94-0.471-0.94-0.988V40.303c0-0.518,0.423-0.941,0.94-0.941h4.328c0.518,0,0.94,0.424,0.94,0.941v24.603
		C94.077,65.423,93.654,65.894,93.137,65.894z"/>
	<path fill="#58595B" d="M121.081,54.792h-15.336v0.142c0,2.729,1.129,5.975,5.646,5.975c3.434,0,6.68-0.282,8.655-0.471
		c0.047,0,0.095,0,0.142,0c0.47,0,0.847,0.235,0.847,0.706v3.104c0,0.753-0.142,1.082-0.988,1.223c-3.058,0.565-4.893,0.8-9.126,0.8
		c-4.704,0-11.385-2.54-11.385-11.808v-3.48c0-7.339,4.093-11.949,11.291-11.949c7.244,0,11.195,4.939,11.195,11.949v2.634
		C122.021,54.369,121.739,54.792,121.081,54.792z M115.766,50.182c0-3.67-2.023-5.787-4.939-5.787c-2.917,0-5.034,2.07-5.034,5.787
		v0.188h9.974V50.182z"/>
	<path fill="#58595B" d="M148.133,65.894h-4.328c-0.518,0-0.94-0.471-0.94-0.988V49.57c0-4.093-0.376-5.269-3.999-5.269
		c-1.6,0-3.34,0.659-5.315,1.693v18.911c0,0.518-0.424,0.988-0.941,0.988h-4.327c-0.518,0-0.941-0.471-0.941-0.988V40.303
		c0-0.518,0.424-0.941,0.941-0.941h4.093c0.517,0,0.94,0.424,0.94,0.941v0.987c2.729-1.74,4.516-2.258,7.621-2.258
		c6.774,0,8.139,4.563,8.139,10.537v15.336C149.074,65.423,148.65,65.894,148.133,65.894z"/>
	<path fill="#58595B" d="M174.949,65.048c-2.916,0.753-6.444,1.223-9.455,1.223c-7.574,0-11.243-4.469-11.243-11.808V50.84
		c0-7.339,3.669-11.808,11.243-11.808c1.129,0,2.775,0.094,4.516,0.329v-8.326c0-0.518,0.424-0.941,0.941-0.941h4.328
		c0.517,0,0.94,0.424,0.94,0.941v32.741C176.22,64.483,176.031,64.765,174.949,65.048z M170.01,44.443
		c-1.316-0.188-3.387-0.33-4.516-0.33c-4.046,0-5.034,2.87-5.034,6.728v3.622c0,3.857,0.988,6.728,5.034,6.728
		c1.693,0,3.622-0.142,4.516-0.329V44.443z"/>
	<path fill="#58595B" d="M201.061,65.894h-3.999c-0.518,0-0.94-0.424-0.94-0.94v-0.753c-2.164,1.317-4.375,2.069-6.634,2.069
		c-3.904,0-8.138-1.505-8.138-7.855v-0.188c0-5.363,3.293-8.139,11.478-8.139h2.964v-2.069c0-3.058-1.364-3.811-4.14-3.811
		c-3.011,0-6.115,0.188-7.668,0.376c-0.094,0-0.188,0-0.235,0c-0.47,0-0.847-0.141-0.847-0.8v-3.011
		c0-0.518,0.282-0.847,0.895-0.987c1.881-0.377,4.609-0.753,7.855-0.753c6.681,0,10.35,2.964,10.35,8.985v16.936
		C202.002,65.47,201.578,65.894,201.061,65.894z M195.792,54.227h-2.964c-4.28,0-5.222,1.364-5.222,3.999v0.188
		c0,2.305,1.035,2.916,3.388,2.916c1.693,0,3.434-0.564,4.798-1.316V54.227z"/>
	<path fill="#58595B" d="M216.728,66.27c-1.835,0-5.787-0.234-8.421-0.94c-0.564-0.142-0.894-0.518-0.894-1.082v-2.822
		c0-0.377,0.329-0.753,0.8-0.753c0.094,0,0.141,0,0.188,0c2.258,0.282,6.492,0.518,7.903,0.518c2.917,0,3.34-0.988,3.34-2.258
		c0-0.895-0.564-1.459-2.069-2.399l-6.445-3.952c-2.305-1.411-3.951-3.763-3.951-6.491c0-4.705,2.964-7.057,8.938-7.057
		c3.811,0,5.975,0.423,8.374,0.94c0.564,0.142,0.847,0.518,0.847,1.082v2.729c0,0.564-0.282,0.894-0.753,0.894
		c-0.094,0-0.141,0-0.188,0c-1.317-0.188-5.081-0.564-7.763-0.564c-2.258,0-3.246,0.518-3.246,1.977
		c0,0.752,0.706,1.223,1.882,1.929l6.163,3.763c3.951,2.399,4.516,4.752,4.516,7.151C225.948,63.025,222.891,66.27,216.728,66.27z"
		/>
</g>
<path fill="#F15B4E" d="M267.789,10.918l-29.302,9.915c-0.514,0.174-0.81,0.466-0.931,0.92c-0.138,0.516-0.053,1.237,0.254,2.143
	l0.34,1.006c0.583,1.725,1.34,2.385,2.398,2.023l27.739-9.386l27.884,9.435c1.06,0.358,1.815-0.3,2.398-2.023l0.34-1.006
	c0.307-0.906,0.392-1.627,0.253-2.144c-0.122-0.454-0.417-0.747-0.931-0.92l-29.398-9.946
	C268.523,10.789,268.184,10.784,267.789,10.918z"/>
<path fill="#F15B4E" d="M297.751,71.151h-58.783c-1.133,0-1.865,0.625-1.865,1.592v2.664c0,0.967,0.732,1.592,1.865,1.592h58.783
	c1.134,0,1.867-0.625,1.867-1.592v-2.664C299.618,71.776,298.885,71.151,297.751,71.151z"/>
</svg>
